<?xml version="1.0" encoding="UTF-8"?>
<svg xmlns="http://www.w3.org/2000/svg" viewBox="0 0 400 120">
  <defs>
    <linearGradient id="rgb" x1="0" y1="0" x2="1" y2="0">
      <stop offset="0%" stop-color="#e02626"/>
      <stop offset="25%" stop-color="#ff8c2a"/>
      <stop offset="50%" stop-color="#2ecc71"/>
      <stop offset="75%" stop-color="#3498db"/>
      <stop offset="100%" stop-color="#9b59b6"/>
    </linearGradient>
  </defs>
  <rect x="10" y="20" width="380" height="80" rx="10" fill="#121218" stroke="#2a2a34"/>
  <rect x="10" y="20" width="380" height="4" rx="2" fill="url(#rgb)"/>
  <g fill="#181820" stroke="#3a3a48" stroke-width="0.5">
    <rect x="20" y="32" width="12" height="12" rx="2"/><rect x="36" y="32" width="12" height="12" rx="2"/>
    <rect x="52" y="32" width="12" height="12" rx="2"/><rect x="68" y="32" width="12" height="12" rx="2"/>
    <rect x="84" y="32" width="12" height="12" rx="2"/><rect x="100" y="32" width="12" height="12" rx="2"/>
    <rect x="116" y="32" width="12" height="12" rx="2"/><rect x="132" y="32" width="12" height="12" rx="2"/>
    <rect x="148" y="32" width="12" height="12" rx="2"/><rect x="164" y="32" width="12" height="12" rx="2"/>
    <rect x="180" y="32" width="12" height="12" rx="2"/><rect x="196" y="32" width="12" height="12" rx="2"/>
    <rect x="212" y="32" width="12" height="12" rx="2"/><rect x="228" y="32" width="12" height="12" rx="2"/>
    <rect x="244" y="32" width="12" height="12" rx="2"/>
    <rect x="20" y="48" width="16" height="12" rx="2"/>
    <rect x="52" y="48" width="12" height="12" rx="2" stroke="#e02626" stroke-width="1.5"/>
    <rect x="68" y="48" width="12" height="12" rx="2"/><rect x="84" y="48" width="12" height="12" rx="2"/>
    <rect x="20" y="64" width="20" height="12" rx="2"/>
    <rect x="44" y="64" width="12" height="12" rx="2"/><rect x="60" y="64" width="12" height="12" rx="2"/>
    <rect x="76" y="64" width="60" height="12" rx="2" stroke="#e02626" opacity="0.5"/>
  </g>
</svg>
