<?xml version="1.0" encoding="UTF-8"?>
<svg xmlns="http://www.w3.org/2000/svg" viewBox="0 0 160 160">
  <defs>
    <linearGradient id="blade" x1="0" y1="0" x2="1" y2="1">
      <stop offset="0%" stop-color="#1e1e28"/>
      <stop offset="100%" stop-color="#0a0a0c"/>
    </linearGradient>
    <linearGradient id="rgb" x1="0" y1="0" x2="1" y2="1">
      <stop offset="0%" stop-color="#e02626"/>
      <stop offset="33%" stop-color="#3498db"/>
      <stop offset="66%" stop-color="#2ecc71"/>
      <stop offset="100%" stop-color="#9b59b6"/>
    </linearGradient>
    <filter id="glow"><feGaussianBlur stdDeviation="4"/><feMerge><feMergeNode/><feMergeNode in="SourceGraphic"/></feMerge></filter>
  </defs>
  <circle cx="80" cy="80" r="60" fill="url(#blade)" stroke="#2a2a34" stroke-width="2"/>
  <circle cx="80" cy="80" r="48" fill="none" stroke="url(#rgb)" stroke-width="3" filter="url(#glow)"/>
  <g fill="#14141a" stroke="#3a3a48" stroke-width="1">
    <path d="M80 20 L84 50 L76 50 Z"/><path d="M80 140 L84 110 L76 110 Z"/>
    <path d="M20 80 L50 84 L50 76 Z"/><path d="M140 80 L110 84 L110 76 Z"/>
    <path d="M38 38 L58 58 L52 64 L32 44 Z"/><path d="M122 122 L102 102 L108 96 L128 116 Z"/>
    <path d="M122 38 L102 58 L108 64 L128 44 Z"/><path d="M38 122 L58 102 L52 96 L32 116 Z"/>
  </g>
  <circle cx="80" cy="80" r="12" fill="#181820" stroke="#e02626" stroke-width="2"/>
  <text x="80" y="85" text-anchor="middle" font-family="Segoe UI,sans-serif" font-size="10" fill="#e02626">28°</text>
</svg>
