<?xml version="1.0" encoding="UTF-8"?>
<svg xmlns="http://www.w3.org/2000/svg" viewBox="0 0 320 200">
  <defs>
    <linearGradient id="pcb" x1="0" y1="0" x2="1" y2="1">
      <stop offset="0%" stop-color="#1a1a22"/>
      <stop offset="100%" stop-color="#0e0e14"/>
    </linearGradient>
    <linearGradient id="rgb" x1="0" y1="0" x2="1" y2="0">
      <stop offset="0%" stop-color="#e02626"/>
      <stop offset="100%" stop-color="#ff3b3b"/>
    </linearGradient>
    <filter id="glow"><feGaussianBlur stdDeviation="3"/><feMerge><feMergeNode/><feMergeNode in="SourceGraphic"/></feMerge></filter>
  </defs>
  <rect x="20" y="40" width="280" height="140" rx="8" fill="url(#pcb)" stroke="#2a2a34" stroke-width="2"/>
  <rect x="40" y="60" width="200" height="100" rx="6" fill="#121218" stroke="#3a3a48"/>
  <rect x="250" y="70" width="36" height="80" rx="4" fill="#181820" stroke="#e02626"/>
  <g stroke="#e02626" stroke-width="1" opacity="0.6">
    <line x1="260" y1="80" x2="276" y2="80"/><line x1="260" y1="90" x2="276" y2="90"/>
    <line x1="260" y1="100" x2="276" y2="100"/><line x1="260" y1="110" x2="276" y2="110"/>
    <line x1="260" y1="120" x2="276" y2="120"/><line x1="260" y1="130" x2="276" y2="130"/>
  </g>
  <circle cx="70" cy="110" r="28" fill="#14141a" stroke="#e02626" stroke-width="2" filter="url(#glow)"/>
  <circle cx="70" cy="110" r="14" fill="none" stroke="url(#rgb)" stroke-width="2"/>
  <rect x="20" y="168" width="280" height="6" rx="3" fill="url(#rgb)" filter="url(#glow)"/>
  <text x="140" y="115" text-anchor="middle" font-family="Segoe UI,sans-serif" font-size="16" font-weight="700" fill="#606070">RTX</text>
</svg>
