<?xml version="1.0" encoding="UTF-8"?>
<svg xmlns="http://www.w3.org/2000/svg" viewBox="0 0 960 280">
  <defs>
    <linearGradient id="plate" x1="0" y1="0" x2="0" y2="1">
      <stop offset="0%" stop-color="#1e1e28"/>
      <stop offset="100%" stop-color="#0e0e14"/>
    </linearGradient>
    <linearGradient id="rgb" x1="0" y1="0" x2="1" y2="0">
      <stop offset="0%" stop-color="#e02626"/>
      <stop offset="50%" stop-color="#3498db"/>
      <stop offset="100%" stop-color="#9b59b6"/>
    </linearGradient>
    <filter id="glow"><feGaussianBlur stdDeviation="2"/><feMerge><feMergeNode/><feMergeNode in="SourceGraphic"/></feMerge></filter>
  </defs>
  <rect x="20" y="30" width="920" height="220" rx="16" fill="url(#plate)" stroke="#2a2a34" stroke-width="2"/>
  <rect x="20" y="30" width="920" height="4" rx="2" fill="url(#rgb)"/>
  <!-- F-row -->
  <g fill="#181820" stroke="#3a3a48" stroke-width="1">
    <rect x="40" y="50" width="36" height="36" rx="4"/>
    <rect x="82" y="50" width="36" height="36" rx="4"/><rect x="124" y="50" width="36" height="36" rx="4"/>
    <rect x="166" y="50" width="36" height="36" rx="4"/><rect x="208" y="50" width="36" height="36" rx="4"/>
    <rect x="250" y="50" width="36" height="36" rx="4"/><rect x="292" y="50" width="36" height="36" rx="4"/>
    <rect x="334" y="50" width="36" height="36" rx="4"/><rect x="376" y="50" width="36" height="36" rx="4"/>
    <rect x="418" y="50" width="36" height="36" rx="4"/><rect x="460" y="50" width="36" height="36" rx="4"/>
    <rect x="502" y="50" width="36" height="36" rx="4"/><rect x="544" y="50" width="36" height="36" rx="4"/>
    <rect x="586" y="50" width="36" height="36" rx="4"/><rect x="628" y="50" width="36" height="36" rx="4"/>
    <rect x="670" y="50" width="36" height="36" rx="4"/><rect x="712" y="50" width="36" height="36" rx="4"/>
    <rect x="754" y="50" width="36" height="36" rx="4"/><rect x="796" y="50" width="36" height="36" rx="4"/>
    <rect x="838" y="50" width="82" height="36" rx="4"/>
  </g>
  <!-- Main rows simplified -->
  <g fill="#181820" stroke="#3a3a48" stroke-width="1">
    <rect x="40" y="94" width="46" height="36" rx="4"/>
    <rect x="92" y="94" width="760" height="36" rx="4" fill="none" stroke="none"/>
    <rect x="92" y="94" width="36" height="36" rx="4"/><rect x="134" y="94" width="36" height="36" rx="4" stroke="#e02626"/>
    <rect x="838" y="94" width="82" height="36" rx="4"/>
    <rect x="40" y="138" width="54" height="36" rx="4"/>
    <rect x="100" y="138" width="778" height="36" rx="4" fill="none" stroke="none"/>
    <rect x="838" y="138" width="82" height="36" rx="4"/>
    <rect x="40" y="182" width="68" height="36" rx="4"/>
    <rect x="838" y="182" width="82" height="36" rx="4"/>
    <rect x="40" y="226" width="44" height="16" rx="3"/>
    <rect x="174" y="226" width="400" height="16" rx="3" stroke="#e02626" filter="url(#glow)"/>
    <rect x="580" y="226" width="120" height="16" rx="3"/>
    <rect x="706" y="226" width="36" height="16" rx="3"/>
    <rect x="748" y="226" width="36" height="16" rx="3"/>
    <rect x="790" y="226" width="36" height="16" rx="3"/>
    <rect x="832" y="226" width="36" height="16" rx="3"/>
    <rect x="874" y="226" width="46" height="16" rx="3"/>
  </g>
  <text x="480" y="20" text-anchor="middle" font-family="Segoe UI,sans-serif" font-size="14" fill="#9090a0">TKL Gaming Keyboard</text>
</svg>
