<?xml version="1.0" encoding="UTF-8"?>
<svg xmlns="http://www.w3.org/2000/svg" viewBox="0 0 800 280">
  <defs>
    <linearGradient id="plate" x1="0" y1="0" x2="0" y2="1">
      <stop offset="0%" stop-color="#1e1e28"/>
      <stop offset="100%" stop-color="#0e0e14"/>
    </linearGradient>
    <linearGradient id="rgb" x1="0" y1="0" x2="1" y2="0">
      <stop offset="0%" stop-color="#e02626"/>
      <stop offset="20%" stop-color="#ff8c2a"/>
      <stop offset="40%" stop-color="#f0e040"/>
      <stop offset="60%" stop-color="#2ecc71"/>
      <stop offset="80%" stop-color="#3498db"/>
      <stop offset="100%" stop-color="#9b59b6"/>
    </linearGradient>
    <filter id="glow" x="-20%" y="-20%" width="140%" height="140%">
      <feGaussianBlur stdDeviation="3" result="b"/>
      <feMerge><feMergeNode in="b"/><feMergeNode in="SourceGraphic"/></feMerge>
    </filter>
  </defs>
  <rect x="20" y="30" width="760" height="220" rx="16" fill="url(#plate)" stroke="#2a2a34" stroke-width="2"/>
  <rect x="20" y="30" width="760" height="4" rx="2" fill="url(#rgb)" opacity="0.9"/>
  <!-- Row 1 -->
  <g fill="#181820" stroke="#3a3a48" stroke-width="1">
    <rect x="40" y="50" width="36" height="36" rx="4"/><rect x="82" y="50" width="36" height="36" rx="4"/>
    <rect x="124" y="50" width="36" height="36" rx="4"/><rect x="166" y="50" width="36" height="36" rx="4"/>
    <rect x="208" y="50" width="36" height="36" rx="4"/><rect x="250" y="50" width="36" height="36" rx="4"/>
    <rect x="292" y="50" width="36" height="36" rx="4"/><rect x="334" y="50" width="36" height="36" rx="4"/>
    <rect x="376" y="50" width="36" height="36" rx="4"/><rect x="418" y="50" width="36" height="36" rx="4"/>
    <rect x="460" y="50" width="36" height="36" rx="4"/><rect x="502" y="50" width="36" height="36" rx="4"/>
    <rect x="544" y="50" width="36" height="36" rx="4"/><rect x="586" y="50" width="64" height="36" rx="4"/>
  </g>
  <!-- Row 2 with W highlighted -->
  <g stroke-width="1">
    <rect x="40" y="94" width="46" height="36" rx="4" fill="#181820" stroke="#3a3a48"/>
    <rect x="92" y="94" width="36" height="36" rx="4" fill="#181820" stroke="#3a3a48"/>
    <rect x="134" y="94" width="36" height="36" rx="4" fill="#2a1212" stroke="#e02626" stroke-width="2" filter="url(#glow)"/>
    <text x="152" y="118" text-anchor="middle" font-family="Segoe UI,sans-serif" font-size="14" font-weight="700" fill="#f0f0f5">W</text>
    <rect x="176" y="94" width="36" height="36" rx="4" fill="#1a2818" stroke="#2ecc71"/>
    <rect x="218" y="94" width="36" height="36" rx="4" fill="#181820" stroke="#3a3a48"/>
    <rect x="260" y="94" width="36" height="36" rx="4" fill="#282018" stroke="#ff8c2a"/>
    <rect x="302" y="94" width="36" height="36" rx="4" fill="#181820" stroke="#3a3a48"/>
    <rect x="344" y="94" width="36" height="36" rx="4" fill="#181828" stroke="#3498db"/>
    <rect x="386" y="94" width="36" height="36" rx="4" fill="#181820" stroke="#3a3a48"/>
    <rect x="428" y="94" width="36" height="36" rx="4" fill="#201828" stroke="#9b59b6"/>
    <rect x="470" y="94" width="36" height="36" rx="4" fill="#181820" stroke="#3a3a48"/>
    <rect x="512" y="94" width="36" height="36" rx="4" fill="#181820" stroke="#3a3a48"/>
    <rect x="554" y="94" width="36" height="36" rx="4" fill="#181820" stroke="#3a3a48"/>
    <rect x="596" y="94" width="54" height="36" rx="4" fill="#181820" stroke="#3a3a48"/>
  </g>
  <!-- Row 3 -->
  <g fill="#181820" stroke="#3a3a48" stroke-width="1">
    <rect x="40" y="138" width="54" height="36" rx="4"/>
    <rect x="100" y="138" width="36" height="36" rx="4"/><rect x="142" y="138" width="36" height="36" rx="4"/>
    <rect x="184" y="138" width="36" height="36" rx="4"/><rect x="226" y="138" width="36" height="36" rx="4"/>
    <rect x="268" y="138" width="36" height="36" rx="4"/><rect x="310" y="138" width="36" height="36" rx="4"/>
    <rect x="352" y="138" width="36" height="36" rx="4"/><rect x="394" y="138" width="36" height="36" rx="4"/>
    <rect x="436" y="138" width="36" height="36" rx="4"/><rect x="478" y="138" width="36" height="36" rx="4"/>
    <rect x="520" y="138" width="36" height="36" rx="4"/><rect x="562" y="138" width="88" height="36" rx="4"/>
  </g>
  <!-- Row 4 -->
  <g fill="#181820" stroke="#3a3a48" stroke-width="1">
    <rect x="40" y="182" width="68" height="36" rx="4"/>
    <rect x="114" y="182" width="36" height="36" rx="4"/><rect x="156" y="182" width="36" height="36" rx="4"/>
    <rect x="198" y="182" width="36" height="36" rx="4"/><rect x="240" y="182" width="36" height="36" rx="4"/>
    <rect x="282" y="182" width="36" height="36" rx="4"/><rect x="324" y="182" width="36" height="36" rx="4"/>
    <rect x="366" y="182" width="36" height="36" rx="4"/><rect x="408" y="182" width="36" height="36" rx="4"/>
    <rect x="450" y="182" width="36" height="36" rx="4"/><rect x="492" y="182" width="36" height="36" rx="4"/>
    <rect x="534" y="182" width="36" height="36" rx="4"/><rect x="576" y="182" width="74" height="36" rx="4"/>
  </g>
  <!-- Row 5 -->
  <g fill="#181820" stroke="#3a3a48" stroke-width="1">
    <rect x="40" y="226" width="44" height="16" rx="3"/>
    <rect x="90" y="226" width="36" height="16" rx="3"/>
    <rect x="132" y="226" width="36" height="16" rx="3"/>
    <rect x="174" y="226" width="180" height="16" rx="3" fill="#222228" stroke="#e02626" opacity="0.5"/>
    <rect x="360" y="226" width="36" height="16" rx="3"/>
    <rect x="402" y="226" width="44" height="16" rx="3"/>
  </g>
</svg>
